<svg version="1.1" xmlns="http://www.w3.org/2000/svg" viewBox="0 0 80.9986829380465 76.01644159637954" width="80.9986829380465" height="76.01644159637954">
  <!-- svg-source:excalidraw -->
  
  <defs>
    <style class="style-fonts">
      @font-face {
        font-family: "Virgil";
        src: url("https://excalidraw.com/Virgil.woff2");
      }
      @font-face {
        font-family: "Cascadia";
        src: url("https://excalidraw.com/Cascadia.woff2");
      }
    </style>
  </defs>
  <g stroke-linecap="round" transform="translate(10 16.868120175553088) rotate(0 24.574160710413253 24.574160710413224)"><path d="M12.29 0 M12.29 0 C17.28 1.58, 24.88 -0.33, 36.86 0 M12.29 0 C21.53 0.73, 32.3 -0.71, 36.86 0 M36.86 0 C45.51 1.42, 49.76 3.84, 49.15 12.29 M36.86 0 C47 -1.37, 49.27 2.9, 49.15 12.29 M49.15 12.29 C48.39 16.29, 47.54 21.44, 49.15 36.86 M49.15 12.29 C49 20.87, 48.89 28.38, 49.15 36.86 M49.15 36.86 C48.73 43.57, 43.28 49.05, 36.86 49.15 M49.15 36.86 C48.69 46.02, 44.4 49.67, 36.86 49.15 M36.86 49.15 C28.06 51.22, 18.26 50.42, 12.29 49.15 M36.86 49.15 C31.32 48.49, 26.37 48.3, 12.29 49.15 M12.29 49.15 C4.36 49.89, 1.11 45.51, 0 36.86 M12.29 49.15 C5.65 51.13, 0.55 46.19, 0 36.86 M0 36.86 C1.3 27.3, 0.5 21.06, 0 12.29 M0 36.86 C1.05 32.6, 0.5 26.16, 0 12.29 M0 12.29 C0.89 5.49, 5.29 0.54, 12.29 0 M0 12.29 C-0.9 4.78, 4.87 -0.14, 12.29 0" stroke="#000000" stroke-width="4" fill="none"></path></g><g stroke-linecap="round"><g transform="translate(21.196052285931728 39.667600200059894) rotate(0 8.420495289994108 5.778338196045212)"><path d="M-0.69 -0.37 C0.87 0.71, 5.79 5.2, 8.41 7.46 C11.04 9.71, 13.74 12.19, 15.05 13.16 M1.15 -1.61 C2.72 -0.97, 5.22 3.48, 7.95 5.62 C10.68 7.75, 16.06 10.26, 17.53 11.2" stroke="#000000" stroke-width="4" fill="none"></path></g></g><mask></mask><g stroke-linecap="round"><g transform="translate(37.44605228593173 53.84332386309899) rotate(0 16.438063632287083 -21.898519644973163)"><path d="M0.51 0.05 C6.06 -7.07, 28.13 -35.02, 33.55 -42.13 M-0.68 -0.98 C4.67 -8.48, 27.06 -37.15, 32.5 -43.84" stroke="#000000" stroke-width="4" fill="none"></path></g></g><mask></mask></svg>