<svg version="1.1" xmlns="http://www.w3.org/2000/svg" viewBox="0 0 74.14180024782809 70.407617113544" width="74.14180024782809"
     height="70.407617113544">
  <g stroke-linecap="round" transform="translate(13.21122091491793 10) rotate(0 24.574160710413253 24.574160710413224)">
    <path
      d="M12.29 0 M12.29 0 C17.28 1.58, 24.88 -0.33, 36.86 0 M12.29 0 C21.53 0.73, 32.3 -0.71, 36.86 0 M36.86 0 C45.51 1.42, 49.76 3.84, 49.15 12.29 M36.86 0 C47 -1.37, 49.27 2.9, 49.15 12.29 M49.15 12.29 C48.39 16.29, 47.54 21.44, 49.15 36.86 M49.15 12.29 C49 20.87, 48.89 28.38, 49.15 36.86 M49.15 36.86 C48.73 43.57, 43.28 49.05, 36.86 49.15 M49.15 36.86 C48.69 46.02, 44.4 49.67, 36.86 49.15 M36.86 49.15 C28.06 51.22, 18.26 50.42, 12.29 49.15 M36.86 49.15 C31.32 48.49, 26.37 48.3, 12.29 49.15 M12.29 49.15 C4.36 49.89, 1.11 45.51, 0 36.86 M12.29 49.15 C5.65 51.13, 0.55 46.19, 0 36.86 M0 36.86 C1.3 27.3, 0.5 21.06, 0 12.29 M0 36.86 C1.05 32.6, 0.5 26.16, 0 12.29 M0 12.29 C0.89 5.49, 5.29 0.54, 12.29 0 M0 12.29 C-0.9 4.78, 4.87 -0.14, 12.29 0"
      stroke="#000000" stroke-width="4" fill="none"></path>
  </g>
  <g stroke-linecap="round">
    <g transform="translate(36.90727320084966 11.141870354212585) rotate(0 -0.10795396404358826 24.637191835896402)">
      <path d="M-0.95 0.69 C-1.08 8.54, 0.27 39.87, 0.41 47.79 M0.75 0.01 C0.4 7.99, -0.05 40.98, -0.33 49.27" stroke="#000000"
            stroke-width="4" fill="none"></path>
    </g>
  </g>
  <mask></mask>
  <g stroke-linecap="round">
    <g transform="translate(13.99060653418303 34.4752036875459) rotate(0 23.080293589731014 -0.336463425457481)">
      <path d="M-0.35 0.45 C6.73 0.23, 36.83 -1.38, 45.22 -1.64 M-3.99 -1.77 C3.67 -1.63, 41.28 0.58, 50.15 1.1" stroke="#000000"
            stroke-width="4" fill="none"></path>
    </g>
  </g>
  <mask></mask>
</svg>
