<svg version="1.1" xmlns="http://www.w3.org/2000/svg" viewBox="0 0 88 88" width="88" height="88">
  <!-- svg-source:excalidraw -->
  
  <defs>
    <style class="style-fonts">
      @font-face {
        font-family: "Virgil";
        src: url("https://excalidraw.com/Virgil.woff2");
      }
      @font-face {
        font-family: "Cascadia";
        src: url("https://excalidraw.com/Cascadia.woff2");
      }
    </style>
  </defs>
  <g stroke-linecap="round" transform="translate(10 10) rotate(0 34 34)"><path d="M52.55 4 C58.25 7.12, 63.8 15.91, 66.44 22.65 C69.07 29.4, 70.35 37.94, 68.35 44.46 C66.36 50.98, 59.75 57.78, 54.47 61.77 C49.19 65.76, 43.28 68.66, 36.66 68.39 C30.04 68.11, 20.26 63.89, 14.77 60.12 C9.28 56.35, 6.08 51.73, 3.71 45.77 C1.34 39.8, -0.93 30.53, 0.56 24.32 C2.05 18.1, 7.49 12.59, 12.64 8.48 C17.79 4.36, 23.64 -1.26, 31.45 -0.38 C39.27 0.5, 53.7 10.3, 59.52 13.76 C65.34 17.21, 66.56 20.42, 66.37 20.37 M37.74 -0.82 C44.78 -0.25, 52.49 5.31, 57.01 9.75 C61.53 14.19, 63.1 20.03, 64.87 25.82 C66.65 31.6, 69.72 38.3, 67.68 44.46 C65.64 50.62, 58.47 59.19, 52.64 62.77 C46.81 66.35, 39.53 65.95, 32.71 65.92 C25.9 65.88, 16.78 66.76, 11.76 62.57 C6.74 58.38, 4.03 47.21, 2.58 40.76 C1.13 34.31, 0.92 29.82, 3.04 23.87 C5.17 17.92, 9.67 8.83, 15.35 5.05 C21.02 1.28, 33.92 2.2, 37.1 1.21 C40.28 0.23, 35.09 -1.42, 34.43 -0.84" stroke="#000000" stroke-width="4" fill="none"></path></g><g stroke-linecap="round"><g transform="translate(44.56856344960079 44.47714551679974) rotate(359.1769701140237 0.6123267166391884 9.220755666676098)"><path d="M0.49 -1.03 C0.54 2.28, -0.15 16.36, -0.15 19.48 M-0.71 1.04 C-0.28 4.05, 1.92 14.9, 1.94 17.81" stroke="#000000" stroke-width="4" fill="none"></path></g></g><mask></mask><g stroke-linecap="round" transform="translate(40.135698975350465 25.882111288143733) rotate(0 3.1371268992016894 3.1371268992016894)"><path d="M4.53 0.48 C5.1 0.54, 5.25 0.18, 5.45 0.72 C5.64 1.26, 5.62 2.93, 5.69 3.72 C5.77 4.5, 6.28 4.99, 5.9 5.42 C5.53 5.85, 4.22 6.08, 3.43 6.3 C2.64 6.52, 1.72 7.08, 1.17 6.75 C0.62 6.42, 0.32 5.01, 0.12 4.33 C-0.08 3.64, -0.3 3.36, -0.03 2.62 C0.24 1.89, 1.2 0.39, 1.75 -0.09 C2.29 -0.56, 2.62 -0.31, 3.24 -0.24 C3.85 -0.17, 5.13 0.32, 5.42 0.34 M2.38 -1.05 C3.18 -1.03, 4.02 1.32, 4.75 2.19 C5.48 3.06, 6.47 3.77, 6.75 4.17 C7.03 4.57, 6.78 4.27, 6.45 4.58 C6.12 4.89, 5.69 5.62, 4.78 6.04 C3.87 6.45, 1.83 7.43, 0.98 7.09 C0.13 6.74, -0.14 4.97, -0.31 3.98 C-0.48 2.99, -0.5 1.74, -0.02 1.14 C0.45 0.54, 2.18 0.75, 2.52 0.36 C2.86 -0.03, 2.1 -1.36, 2.01 -1.17 C1.92 -0.99, 1.87 1.33, 1.97 1.47" stroke="none" stroke-width="0" fill="#000000"></path><path d="M4.43 0.05 C4.95 0.11, 5.38 0.56, 5.78 1.08 C6.18 1.6, 6.89 2.5, 6.83 3.19 C6.78 3.88, 6.22 4.65, 5.45 5.19 C4.69 5.74, 2.93 6.28, 2.23 6.48 C1.52 6.69, 1.49 6.92, 1.21 6.43 C0.92 5.95, 0.57 4.24, 0.51 3.58 C0.44 2.91, 0.54 3.01, 0.82 2.45 C1.11 1.88, 1.76 0.38, 2.22 0.18 C2.68 -0.03, 3.1 1.2, 3.57 1.2 C4.05 1.21, 4.92 0.35, 5.05 0.2 M3.64 1.19 C4.66 1.35, 6.63 0.88, 7.15 1.16 C7.67 1.43, 7.11 2.29, 6.78 2.85 C6.46 3.42, 6.01 3.74, 5.2 4.54 C4.4 5.34, 2.7 7.29, 1.95 7.64 C1.2 7.99, 0.81 7.46, 0.71 6.65 C0.61 5.85, 1.31 3.52, 1.37 2.81 C1.44 2.1, 1.07 2.89, 1.1 2.41 C1.13 1.93, 0.98 0.33, 1.56 -0.07 C2.13 -0.46, 4.28 0.12, 4.55 0.05 C4.81 -0.02, 3.08 -0.65, 3.15 -0.48" stroke="#000000" stroke-width="1" fill="none"></path></g></svg>